<?xml version="1.0" encoding="utf-8"?>
<!-- Generator: Adobe Illustrator 16.0.0, SVG Export Plug-In . SVG Version: 6.00 Build 0)  -->
<!DOCTYPE svg PUBLIC "-//W3C//DTD SVG 1.1//EN" "http://www.w3.org/Graphics/SVG/1.1/DTD/svg11.dtd">
<svg version="1.1" id="Слой_1" xmlns="http://www.w3.org/2000/svg" xmlns:xlink="http://www.w3.org/1999/xlink" x="0px" y="0px"
	 width="632.541px" height="89.544px" viewBox="0 0 632.541 89.544" enable-background="new 0 0 632.541 89.544"
	 xml:space="preserve">
<image display="none" overflow="visible" width="1366" height="768" xlink:href="842D264E.jpg"  transform="matrix(1 0 0 1 -358.604 -384.2183)">
</image>
<g>
	<path fill="#FFFFFF" d="M144.975,58.272c1.892,0,3.74-0.222,5.547-0.666c1.804-0.444,3.357-0.902,4.658-1.375
		c0.769-0.296,1.287-0.399,1.553-0.312c0.266,0.089,0.517,0.46,0.754,1.108l2.486,6.658c0.295,0.591,0.428,1.064,0.4,1.418
		c-0.031,0.355-0.372,0.711-1.021,1.067c-2.605,1.417-5.384,2.381-8.342,2.884c-2.959,0.501-5.651,0.751-8.076,0.751
		c-6.983,0-12.278-2.009-15.886-6.033c-3.609-4.022-5.413-10.058-5.413-18.104c0-3.785,0.517-7.201,1.553-10.25
		c1.035-3.045,2.499-5.635,4.393-7.766c1.894-2.129,4.216-3.756,6.966-4.879c2.75-1.124,5.813-1.688,9.185-1.688
		c2.487,0,4.94,0.254,7.367,0.757c2.424,0.502,4.644,1.258,6.656,2.263c0.769,0.354,1.198,0.681,1.288,0.974
		c0.088,0.299-0.016,0.801-0.313,1.51l-2.484,6.834c-0.297,0.651-0.621,1.008-0.977,1.066c-0.354,0.06-0.946-0.031-1.775-0.268
		c-1.538-0.474-3.046-0.855-4.525-1.154c-1.48-0.295-2.899-0.443-4.26-0.443c-1.774,0-3.27,0.355-4.481,1.065
		c-1.214,0.709-2.205,1.656-2.973,2.838c-0.77,1.187-1.332,2.563-1.687,4.13c-0.354,1.567-0.532,3.238-0.532,5.012
		c0,1.835,0.148,3.521,0.444,5.06c0.295,1.54,0.828,2.87,1.597,3.994c0.769,1.124,1.789,1.996,3.062,2.618
		C141.409,57.961,143.021,58.272,144.975,58.272z"/>
	<path fill="#FFFFFF" d="M193.872,76.554c-1.361,4.081-3.314,6.995-5.857,8.74c-2.544,1.745-5.917,2.618-10.117,2.618
		c-1.184,0-2.56-0.09-4.126-0.268c-1.569-0.18-3.122-0.507-4.66-0.984c-0.709-0.182-1.168-0.389-1.375-0.626
		c-0.209-0.238-0.222-0.687-0.046-1.343l1.509-7.067c0.178-0.714,0.385-1.103,0.622-1.16c0.235-0.06,0.678-0.029,1.331,0.09
		c0.945,0.176,1.744,0.294,2.396,0.354c0.65,0.059,1.3,0.089,1.952,0.089c2.069,0,3.696-0.338,4.881-1.012
		c1.183-0.675,2.099-2.038,2.751-4.089l1.597-4.75h-2.573c-1.362,0-2.339-0.236-2.929-0.712c-0.593-0.472-1.154-1.506-1.687-3.104
		l-13.489-39.405c-0.237-0.649-0.222-1.094,0.045-1.331c0.266-0.235,0.634-0.355,1.108-0.355h10.384
		c0.888,0,1.494,0.104,1.818,0.312c0.326,0.208,0.578,0.635,0.755,1.287l5.059,17.926l4.171,15.442h0.533l4.527-15.707l5.325-17.483
		c0.177-0.651,0.413-1.109,0.709-1.377c0.294-0.264,0.888-0.399,1.774-0.399h10.562c1.006,0,1.331,0.476,0.977,1.421l-17.927,52.981
		L193.872,76.554L193.872,76.554z"/>
	<path fill="#FFFFFF" d="M261.318,67.146c0,0.651-0.119,1.095-0.355,1.331c-0.237,0.236-0.77,0.354-1.597,0.354h-9.229
		c-1.242,0-1.864-0.561-1.864-1.685V32.711h-17.04v34.435c0,0.651-0.104,1.095-0.31,1.331c-0.209,0.236-0.726,0.354-1.554,0.354
		h-9.141c-1.243,0-1.864-0.561-1.864-1.685V27.21c0-1.42,0.325-2.604,0.976-3.55c0.65-0.945,2.011-1.421,4.082-1.421h32.836
		c2.071,0,3.431,0.476,4.083,1.421c0.65,0.946,0.976,2.13,0.976,3.55V67.146L261.318,67.146z"/>
	<path fill="#FFFFFF" d="M293.089,21.085c6.923,0,12.114,1.731,15.575,5.193c3.462,3.46,5.192,8.417,5.192,14.865
		c0,3.075-0.593,5.178-1.775,6.301c-1.185,1.125-2.811,1.685-4.881,1.685h-22.718c0.059,1.896,0.367,3.462,0.931,4.703
		c0.562,1.245,1.315,2.25,2.263,3.02c0.946,0.768,2.056,1.302,3.328,1.597c1.271,0.296,2.646,0.444,4.125,0.444
		c1.717,0,3.464-0.207,5.237-0.622c1.775-0.413,3.431-0.945,4.969-1.599c0.71-0.235,1.198-0.311,1.465-0.22
		c0.267,0.088,0.517,0.37,0.754,0.841l2.839,6.393c0.236,0.53,0.281,0.946,0.133,1.241c-0.149,0.296-0.458,0.592-0.932,0.888
		c-2.189,1.42-4.734,2.44-7.632,3.062c-2.899,0.622-5.591,0.93-8.075,0.93c-7.751,0-13.489-1.92-17.217-5.768
		c-3.727-3.844-5.591-9.939-5.591-18.28c0-3.904,0.517-7.38,1.553-10.427c1.035-3.047,2.515-5.635,4.438-7.767
		c1.922-2.13,4.229-3.741,6.923-4.836C286.685,21.636,289.718,21.085,293.089,21.085z M293.356,31.737
		c-2.425,0-4.408,0.857-5.945,2.574c-1.54,1.715-2.427,3.904-2.663,6.565h16.597c0-1.301-0.134-2.514-0.401-3.639
		c-0.266-1.122-0.695-2.084-1.286-2.882c-0.593-0.8-1.39-1.436-2.396-1.908C296.255,31.974,294.953,31.737,293.356,31.737z"/>
	<path fill="#FFFFFF" d="M336.131,85.428c0,0.65-0.104,1.063-0.31,1.242c-0.205,0.177-0.719,0.266-1.542,0.266h-9.165
		c-0.646,0-1.117-0.089-1.411-0.266c-0.292-0.179-0.44-0.593-0.44-1.242V27.565c0-0.65,0.101-1.166,0.31-1.554
		c0.207-0.384,0.695-0.782,1.464-1.197c2.84-1.301,6.019-2.219,9.54-2.751c3.521-0.532,6.881-0.799,10.074-0.799
		c4.199,0,7.733,0.636,10.604,1.908c2.868,1.271,5.176,2.989,6.922,5.148c1.744,2.159,3.002,4.718,3.772,7.677
		c0.768,2.957,1.153,6.121,1.153,9.494c0,3.314-0.417,6.434-1.247,9.362c-0.83,2.931-2.106,5.489-3.826,7.678
		c-1.723,2.189-3.902,3.92-6.541,5.189c-2.641,1.272-5.743,1.909-9.301,1.909c-1.781,0-3.429-0.074-4.941-0.221
		c-1.515-0.148-3.219-0.432-5.117-0.843L336.131,85.428L336.131,85.428z M353.615,45.227c0-2.425-0.24-4.469-0.713-6.125
		c-0.478-1.656-1.176-2.986-2.097-3.994c-0.922-1.005-2.051-1.714-3.391-2.13c-1.338-0.414-2.84-0.62-4.504-0.62
		c-0.833,0-1.919,0.088-3.255,0.265c-1.339,0.179-2.513,0.415-3.523,0.711v24.229c1.543,0.414,2.928,0.68,4.146,0.797
		c1.22,0.12,2.307,0.178,3.258,0.178c2.972,0,5.395-1.004,7.269-3.017C352.677,53.509,353.615,50.077,353.615,45.227z"/>
	<path fill="#FFFFFF" d="M419.819,67.146c0,0.651-0.119,1.095-0.354,1.331c-0.238,0.236-0.771,0.354-1.599,0.354h-9.229
		c-1.245,0-1.864-0.561-1.864-1.685V32.711h-17.039v34.435c0,0.651-0.105,1.095-0.312,1.331c-0.207,0.236-0.726,0.354-1.552,0.354
		h-9.141c-1.243,0-1.865-0.561-1.865-1.685V27.21c0-1.42,0.325-2.604,0.976-3.55c0.651-0.945,2.012-1.421,4.084-1.421h32.835
		c2.07,0,3.432,0.476,4.083,1.421c0.651,0.946,0.976,2.13,0.976,3.55L419.819,67.146L419.819,67.146z"/>
	<path fill="#FFFFFF" d="M474.399,45.315c0,7.811-1.864,13.844-5.593,18.104c-3.728,4.26-9.408,6.388-17.039,6.388
		c-7.691,0-13.311-2.128-16.861-6.388c-3.552-4.26-5.324-10.235-5.324-17.927c0-3.786,0.516-7.203,1.554-10.25
		c1.033-3.047,2.512-5.604,4.437-7.677c1.922-2.07,4.259-3.668,7.01-4.791c2.752-1.124,5.872-1.688,9.363-1.688
		c7.454,0,13.061,2.144,16.816,6.436C472.519,31.81,474.399,37.743,474.399,45.315z M460.997,45.581
		c0-2.011-0.146-3.845-0.442-5.503c-0.298-1.655-0.8-3.075-1.51-4.259c-0.71-1.183-1.628-2.115-2.75-2.796
		c-1.125-0.68-2.516-1.021-4.172-1.021c-3.137,0-5.458,1.198-6.966,3.595c-1.51,2.396-2.262,5.635-2.262,9.718
		c0,4.438,0.693,7.811,2.084,10.117c1.389,2.307,3.683,3.461,6.878,3.461c1.655,0,3.062-0.341,4.216-1.021
		c1.153-0.679,2.099-1.626,2.84-2.84c0.737-1.212,1.271-2.617,1.598-4.216C460.833,49.219,460.997,47.474,460.997,45.581z"/>
	<path fill="#FFFFFF" d="M501.554,53.213l-7.899,13.668c-0.354,0.648-0.755,1.139-1.198,1.463c-0.444,0.325-1.11,0.487-1.996,0.487
		h-10.118c-0.652,0-1.065-0.176-1.242-0.532c-0.178-0.355-0.089-0.827,0.265-1.418l15-22.633l-13.401-20.41
		c-0.237-0.297-0.312-0.638-0.222-1.021c0.088-0.385,0.429-0.577,1.021-0.577h10.649c0.828,0,1.464,0.119,1.909,0.355
		c0.44,0.237,0.813,0.682,1.109,1.331l6.211,11.448l6.302-11.448c0.354-0.649,0.739-1.094,1.152-1.331
		c0.415-0.235,1.035-0.355,1.864-0.355h10.472c0.651,0,1.006,0.178,1.065,0.534c0.059,0.354,0.028,0.681-0.089,0.975l-13.666,20.322
		l15.085,22.897c0.296,0.475,0.385,0.903,0.269,1.287c-0.12,0.387-0.534,0.576-1.244,0.576h-10.383
		c-1.006,0-1.702-0.162-2.086-0.487c-0.385-0.324-0.755-0.814-1.109-1.463L501.554,53.213z"/>
	<path fill="#FFFFFF" d="M573.616,45.315c0,7.811-1.865,13.844-5.593,18.104c-3.729,4.26-9.408,6.388-17.039,6.388
		c-7.69,0-13.312-2.128-16.862-6.388c-3.55-4.26-5.323-10.235-5.323-17.927c0-3.786,0.516-7.203,1.554-10.25
		c1.034-3.047,2.513-5.604,4.437-7.677c1.921-2.07,4.258-3.668,7.01-4.791c2.751-1.124,5.873-1.688,9.362-1.688
		c7.455,0,13.062,2.144,16.818,6.436C571.736,31.81,573.616,37.743,573.616,45.315z M560.215,45.581
		c0-2.011-0.149-3.845-0.445-5.503c-0.295-1.655-0.799-3.075-1.508-4.259c-0.711-1.183-1.629-2.115-2.753-2.796
		c-1.124-0.68-2.514-1.021-4.169-1.021c-3.138,0-5.459,1.198-6.968,3.595c-1.509,2.396-2.263,5.635-2.263,9.718
		c0,4.438,0.694,7.811,2.086,10.117c1.389,2.307,3.683,3.461,6.878,3.461c1.655,0,3.063-0.341,4.215-1.021
		c1.153-0.679,2.1-1.626,2.84-2.84c0.739-1.212,1.272-2.617,1.597-4.216C560.05,49.219,560.215,47.474,560.215,45.581z"/>
	<path fill="#FFFFFF" d="M584.086,58.715c1.655-1.537,2.839-3.563,3.55-6.08c0.708-2.514,1.212-5.338,1.509-8.473l2.396-16.863
		c0.234-1.538,0.753-2.766,1.553-3.685c0.799-0.914,2.382-1.375,4.749-1.375h23.34c2.247,0,3.713,0.461,4.393,1.375
		c0.679,0.919,1.02,2.265,1.02,4.039v31.062l3.019,0.268c1.183,0.119,1.966,0.502,2.353,1.154c0.384,0.65,0.575,1.449,0.575,2.395
		l-1.064,18.637c0,0.888-0.475,1.331-1.419,1.331h-7.811c-0.532,0-0.887-0.119-1.064-0.355c-0.178-0.237-0.297-0.591-0.355-1.065
		l-0.531-12.247h-29.73c-0.121,2.073-0.238,4.113-0.356,6.124c-0.12,2.012-0.235,4.052-0.354,6.125
		c-0.06,0.531-0.178,0.9-0.356,1.108c-0.177,0.208-0.563,0.311-1.154,0.311h-7.719c-0.889,0-1.331-0.442-1.331-1.331l-1.065-18.547
		c0-1.006,0.205-1.833,0.62-2.484c0.413-0.652,1.213-1.035,2.396-1.154L584.086,58.715z M613.728,32.801h-11.006
		c-0.83,7.276-1.657,13.002-2.485,17.171c-0.829,4.172-1.746,7.117-2.75,8.831h16.241V32.801z"/>
</g>
<path fill="#FFFFFF" stroke="#FFFFFF" stroke-miterlimit="10" d="M94.926,63.246L63.513,8.836C60.949,3.907,55.462,0.5,49.104,0.5
	c-6.357,0-11.847,3.407-14.409,8.336L2.984,63.76C1.405,66.245,0.5,69.132,0.5,72.214c0,9.143,7.964,16.585,17.887,16.823
	l0.004,0.006h0.45c0.013,0,0.026,0.001,0.039,0.001c0.013,0,0.026-0.001,0.038-0.001l60.445,0.001c0.002,0,0.005,0,0.009,0
	s0.007,0,0.011,0h0.509l0.004-0.008c9.908-0.253,17.856-7.688,17.856-16.822C97.752,68.916,96.716,65.841,94.926,63.246z
	 M81.046,78.328l-0.008,0.016H17.433l-0.002-0.006c-3.374-0.104-6.078-2.873-6.078-6.273c0-1.23,0.354-2.378,0.968-3.348
	l-0.009-0.015l31.187-54.018c1.029-2.064,3.159-3.483,5.621-3.483c2.465,0,4.597,1.421,5.625,3.489l31.236,54.104
	c0.582,0.953,0.919,2.072,0.919,3.271C86.9,75.389,84.315,78.108,81.046,78.328z"/>
</svg>
